<?xml version="1.0" encoding="utf-8"?>
<!-- Generator: Adobe Illustrator 21.1.0, SVG Export Plug-In . SVG Version: 6.00 Build 0)  -->
<svg version="1.1" id="Layer_1" xmlns="http://www.w3.org/2000/svg" xmlns:xlink="http://www.w3.org/1999/xlink" x="0px" y="0px"
	 viewBox="0 0 150 150" style="enable-background:new 0 0 150 150;" xml:space="preserve">
<style type="text/css">
	.st0{fill:#D4765D;}
	.st1{fill:#C15C48;}
</style>
<g>
	<g>
		<path class="st0" d="M131.8,71.1c-7.4-1.3-14.5,3.6-15.8,10.9c-3.7,20.1-21.2,34.7-41.7,34.6c-23.3-0.1-42.2-19.1-42.1-42.4
			C32.3,51,51.3,32.1,74.6,32.2c1.7,0,3.4,0.1,5.1,0.3c7.4,0.9,14.2-4.4,15.2-11.8c0.9-7.5-4.4-14.2-11.8-15.2
			C80.3,5.2,77.5,5,74.7,5C36.5,4.9,5.2,35.9,5.1,74.2s30.9,69.5,69.2,69.7c33.7,0.1,62.5-23.8,68.6-57
			C144.1,79.5,139.2,72.4,131.8,71.1z M69,57.9c-5.3-5.3-13.9-5.3-19.2,0c-5.3,5.3-5.3,13.9,0,19.2l24.7,24.7l65.6-65.6
			c5.3-5.3,5.3-13.9,0-19.2c-5.3-5.3-13.9-5.3-19.2,0L74.5,63.4L69,57.9z"/>
	</g>
	<polygon class="st1" points="74.5,63.4 93.7,82.6 80.8,57.1 	"/>
</g>
</svg>
